<svg id="Capa_1" data-name="Capa 1" xmlns="http://www.w3.org/2000/svg" viewBox="0 0 389.79 275.29"><defs><style>.cls-1{fill:#fff;}</style></defs><title>more-photo</title><path class="cls-1" d="M141.5,122V298.25h235V122ZM361.81,283.56H156.19V136.69H361.81Z" transform="translate(-61.47 -122)"/><circle class="cls-1" cx="263.63" cy="51.41" r="22.03"/><path class="cls-1" d="M290,210.43c-13.36,0-12,28.44-30.26,28.44s-28.17-72.75-50.86-72.75-38,103.12-38,103.12h178.4S303.37,210.43,290,210.43Z" transform="translate(-61.47 -122)"/><path class="cls-1" d="M119.88,346.7q3.89,4.2,3.89,11.65v21.38H112.55V359.67a7.51,7.51,0,0,0-1.88-5.44,6.79,6.79,0,0,0-5.12-2,6.91,6.91,0,0,0-5.31,2.08,8.19,8.19,0,0,0-1.95,5.84v19.53H87V359.67a7.58,7.58,0,0,0-1.85-5.44,6.67,6.67,0,0,0-5.08-2,7.11,7.11,0,0,0-5.35,2,8.14,8.14,0,0,0-2,5.88v19.53H61.47V342.91H72.75v6.27a11,11,0,0,1,4.46-4.89,13.48,13.48,0,0,1,7-1.78,14.13,14.13,0,0,1,7.45,1.95A12.21,12.21,0,0,1,96.58,350a14.66,14.66,0,0,1,5.25-5.47,13.72,13.72,0,0,1,7.35-2.05Q116,342.51,119.88,346.7Z" transform="translate(-61.47 -122)"/><path class="cls-1" d="M158.32,344.72a16.73,16.73,0,0,1,6.8,6.57,21.6,21.6,0,0,1,0,20.06,16.73,16.73,0,0,1-6.8,6.57,22.27,22.27,0,0,1-19.63,0,16.62,16.62,0,0,1-6.83-6.57,21.52,21.52,0,0,1,0-20.06,16.62,16.62,0,0,1,6.83-6.57,22.27,22.27,0,0,1,19.63,0Zm-15.24,9.84q-2.22,2.34-2.22,6.76t2.22,6.73a7.22,7.22,0,0,0,5.44,2.31,7.12,7.12,0,0,0,5.41-2.31q2.17-2.31,2.18-6.73t-2.18-6.76a7.05,7.05,0,0,0-5.41-2.35A7.15,7.15,0,0,0,143.08,354.56Z" transform="translate(-61.47 -122)"/><path class="cls-1" d="M190.2,344.49a13.9,13.9,0,0,1,7.23-2v12.08h-3.24a11.19,11.19,0,0,0-7,1.91c-1.65,1.28-2.48,3.43-2.48,6.47v16.76H173.47V342.91h11.28v6.93A16,16,0,0,1,190.2,344.49Z" transform="translate(-61.47 -122)"/><path class="cls-1" d="M236.83,363.37H211.29q.19,4.15,2.11,6a6.79,6.79,0,0,0,4.88,1.81,6.66,6.66,0,0,0,4.16-1.25,5.85,5.85,0,0,0,2.18-3.23h11.94a15.68,15.68,0,0,1-3.16,7,16.91,16.91,0,0,1-6.21,4.82,21.16,21.16,0,0,1-18-.53,16.24,16.24,0,0,1-6.57-6.57,22.51,22.51,0,0,1,0-20.09,16.08,16.08,0,0,1,6.56-6.54,21.65,21.65,0,0,1,19.28,0,15.8,15.8,0,0,1,6.43,6.3,18.76,18.76,0,0,1,2.28,9.34A15.64,15.64,0,0,1,236.83,363.37Zm-13-10.2a7.16,7.16,0,0,0-5-1.82,7.4,7.4,0,0,0-5.15,1.85,7.77,7.77,0,0,0-2.31,5.41h14.39A6.8,6.8,0,0,0,223.79,353.17Z" transform="translate(-61.47 -122)"/><path class="cls-1" d="M287.35,344.72a15.66,15.66,0,0,1,5.68,6.54,25.41,25.41,0,0,1,0,20.09,15.62,15.62,0,0,1-5.68,6.57,14.92,14.92,0,0,1-8.15,2.28,13.28,13.28,0,0,1-7.26-1.92,11,11,0,0,1-4.42-5.21v24.22H256.23V342.91h11.29v6.66a11,11,0,0,1,4.42-5.21,13.28,13.28,0,0,1,7.26-1.92A14.92,14.92,0,0,1,287.35,344.72Zm-17.62,10a10.55,10.55,0,0,0,0,13.1,8.27,8.27,0,0,0,11.68.07,11,11,0,0,0,0-13.2,7.61,7.61,0,0,0-5.84-2.38A7.7,7.7,0,0,0,269.73,354.75Z" transform="translate(-61.47 -122)"/><path class="cls-1" d="M334.41,346.73q3.72,4.23,3.73,11.62v21.38H326.85V359.67a8.09,8.09,0,0,0-2-5.77,6.73,6.73,0,0,0-5.18-2.08,7,7,0,0,0-5.44,2.17,8.84,8.84,0,0,0-2,6.21v19.53H301V330.89h11.28v18.75a12.21,12.21,0,0,1,4.72-5.22,13.91,13.91,0,0,1,7.36-1.91A12.77,12.77,0,0,1,334.41,346.73Z" transform="translate(-61.47 -122)"/><path class="cls-1" d="M372.62,344.72a16.73,16.73,0,0,1,6.8,6.57,21.6,21.6,0,0,1,0,20.06,16.73,16.73,0,0,1-6.8,6.57,22.27,22.27,0,0,1-19.63,0,16.65,16.65,0,0,1-6.84-6.57,21.6,21.6,0,0,1,0-20.06,16.65,16.65,0,0,1,6.84-6.57,22.27,22.27,0,0,1,19.63,0Zm-15.25,9.84q-2.21,2.34-2.21,6.76t2.21,6.73a7.25,7.25,0,0,0,5.45,2.31,7.14,7.14,0,0,0,5.41-2.31q2.17-2.31,2.18-6.73t-2.18-6.76a7.07,7.07,0,0,0-5.41-2.35A7.18,7.18,0,0,0,357.37,354.56Z" transform="translate(-61.47 -122)"/><path class="cls-1" d="M408.62,370v9.7h-5.08q-6.46,0-10.06-3.2t-3.6-10.59V352.41h-4.95v-9.5h4.95v-9.05h11.29v9.05h7.39v9.5h-7.39v13.73a4.09,4.09,0,0,0,.89,3,4.2,4.2,0,0,0,3,.86Z" transform="translate(-61.47 -122)"/><path class="cls-1" d="M442,344.72a16.67,16.67,0,0,1,6.8,6.57,21.52,21.52,0,0,1,0,20.06,16.67,16.67,0,0,1-6.8,6.57,22.27,22.27,0,0,1-19.63,0,16.68,16.68,0,0,1-6.83-6.57,21.52,21.52,0,0,1,0-20.06,16.68,16.68,0,0,1,6.83-6.57,22.27,22.27,0,0,1,19.63,0Zm-15.24,9.84c-1.48,1.56-2.21,3.81-2.21,6.76s.73,5.19,2.21,6.73a7.23,7.23,0,0,0,5.44,2.31,7.16,7.16,0,0,0,5.42-2.31q2.17-2.31,2.17-6.73t-2.17-6.76a7.09,7.09,0,0,0-5.42-2.35A7.16,7.16,0,0,0,426.74,354.56Z" transform="translate(-61.47 -122)"/></svg>